<svg width="603" height="390" viewBox="0 0 603 390" fill="none" xmlns="http://www.w3.org/2000/svg">
<path d="M425.166 156.679C381.258 129.493 457.298 85.643 440.466 42.2509C423.634 -1.14118 368.059 43.48 338.16 64.8532C308.261 86.2263 273.218 47.9796 249.995 46.9588C226.771 45.9381 239.839 62.645 229.354 84.289C218.87 105.933 141.67 87.9553 110.698 108.87C79.7484 129.785 129.062 174.281 133.221 200.821C137.38 227.36 84.0604 257.378 118.206 296.771L287.905 296C304.978 291.917 316.119 288.688 316.119 288.688C475.027 235.401 469.073 183.864 425.166 156.679Z" fill="#EAEDF8"/>
<path d="M166.378 38.6373L128.971 3.03624C128.249 2.3488 128.249 1.22385 128.971 0.515581C129.693 -0.17186 130.875 -0.17186 131.619 0.515581L169.026 36.1167C169.749 36.8042 169.749 37.9291 169.026 38.6373C168.282 39.3248 167.1 39.3248 166.378 38.6373Z" fill="#283477"/>
<path d="M161.365 21.1595L147.313 7.78569C146.59 7.09825 146.59 5.97336 147.313 5.26509C148.035 4.57765 149.217 4.57765 149.961 5.26509L164.013 18.6389C164.736 19.3263 164.736 20.4512 164.013 21.1595C163.269 21.8469 162.087 21.8469 161.365 21.1595Z" fill="#283477"/>
<path d="M166.377 51.3446L115.618 3.03624C114.896 2.3488 114.896 1.22385 115.618 0.515581C116.341 -0.17186 117.523 -0.17186 118.267 0.515581L169.026 48.8239C169.748 49.5114 169.748 50.6363 169.026 51.3446C168.281 52.032 167.099 52.032 166.377 51.3446Z" fill="#283477"/>
<path d="M163.576 61.4061L105.026 5.68169C104.303 4.99425 104.303 3.86936 105.026 3.16109C105.748 2.47365 106.93 2.47365 107.674 3.16109L166.225 58.8855C166.947 59.5729 166.947 60.6978 166.225 61.4061C165.503 62.0935 164.321 62.0935 163.576 61.4061Z" fill="#283477"/>
<path d="M159.024 69.7597L96.2702 10.0357C95.5479 9.34825 95.5479 8.22336 96.2702 7.51509C96.9926 6.82765 98.1745 6.82765 98.9187 7.51509L161.672 67.2391C162.394 67.9266 162.394 69.0515 161.672 69.7597C160.928 70.4472 159.746 70.4472 159.024 69.7597Z" fill="#283477"/>
<path d="M153.004 76.7588L88.8938 15.7433C88.1715 15.0558 88.1715 13.9309 88.8938 13.2226C89.6161 12.5352 90.7981 12.5352 91.5423 13.2226L155.653 74.2382C156.375 74.9256 156.375 76.0505 155.653 76.7588C154.93 77.4462 153.748 77.4462 153.004 76.7588Z" fill="#283477"/>
<path d="M145.65 82.4668L82.8967 22.7427C82.1744 22.0553 82.1744 20.9304 82.8967 20.2221C83.619 19.5347 84.801 19.5347 85.5452 20.2221L148.299 79.9461C149.021 80.6336 149.021 81.7585 148.299 82.4668C147.576 83.1751 146.394 83.1751 145.65 82.4668Z" fill="#283477"/>
<path d="M136.873 86.8207L78.322 31.0963C77.5997 30.4089 77.5997 29.2839 78.322 28.5756C79.0443 27.8882 80.2263 27.8882 80.9705 28.5756L139.521 84.3C140.244 84.9874 140.244 86.1124 139.521 86.8207C138.799 87.5081 137.595 87.5081 136.873 86.8207Z" fill="#283477"/>
<path d="M126.3 89.4661L75.5417 41.1578C74.8194 40.4703 74.8194 39.3454 75.5417 38.6372C76.264 37.9497 77.446 37.9497 78.1902 38.6372L128.949 86.9455C129.671 87.633 129.671 88.7578 128.949 89.4661C128.227 90.1744 127.045 90.1744 126.3 89.4661Z" fill="#283477"/>
<path d="M112.949 89.4664L75.5417 53.8653C74.8194 53.1778 74.8194 52.053 75.5417 51.3447C76.264 50.6572 77.446 50.6572 78.1902 51.3447L115.619 86.9458C116.341 87.6332 116.341 88.7581 115.619 89.4664C114.875 90.1746 113.693 90.1746 112.949 89.4664Z" fill="#283477"/>
<path d="M94.6061 84.6956L80.5539 71.3218C79.8316 70.6344 79.8316 69.5095 80.5539 68.8012C81.2762 68.1138 82.4582 68.1138 83.2024 68.8012L97.2546 82.175C97.9769 82.8625 97.9769 83.9874 97.2546 84.6956C96.5104 85.4039 95.3284 85.4039 94.6061 84.6956Z" fill="#283477"/>
<path d="M406.973 302.989C406.973 307.801 301.034 314.926 223.835 306.822C145.716 298.615 102.224 305.427 102.224 300.614C102.224 295.802 173.995 291.928 252.596 291.928C331.196 291.928 406.973 298.177 406.973 302.989Z" fill="#656BA3"/>
<path d="M162.898 53.0739C162.898 53.0739 162.876 53.0528 162.876 53.0317C163.139 53.0317 163.118 53.0317 162.898 53.0739Z" fill="#EE7576"/>
<path d="M79.46 68.145L99.76 76.7L46.69 202.995H153.265V222.425H20.88V204.735L79.46 68.145ZM127.455 146.3V271H103.965L103.82 207.635L107.155 146.3H127.455ZM260.887 68.145C282.443 68.145 298.732 77.0383 309.752 94.825C320.772 112.612 326.282 138.035 326.282 171.095C326.282 204.252 320.772 229.772 309.752 247.655C298.732 265.442 282.443 274.335 260.887 274.335C239.427 274.335 223.138 265.442 212.022 247.655C201.002 229.772 195.492 204.252 195.492 171.095C195.492 138.035 201.002 112.612 212.022 94.825C223.138 77.0383 239.427 68.145 260.887 68.145ZM260.887 87.72C248.61 87.72 238.943 94.245 231.887 107.295C224.83 120.248 221.302 141.515 221.302 171.095C221.302 186.078 222.075 198.887 223.622 209.52C225.168 220.153 227.537 228.805 230.727 235.475C234.013 242.048 238.122 246.882 243.052 249.975C248.078 253.068 254.023 254.615 260.887 254.615C269.2 254.615 276.305 251.763 282.202 246.06C288.195 240.357 292.738 231.367 295.832 219.09C299.022 206.717 300.617 190.718 300.617 171.095C300.617 151.182 299.215 135.087 296.412 122.81C293.705 110.533 289.403 101.64 283.507 96.13C277.707 90.5233 270.167 87.72 260.887 87.72ZM290.322 94.825L296.702 116.14L233.192 244.755L224.202 227.79L290.322 94.825ZM427.233 68.145L447.533 76.7L394.463 202.995H501.038V222.425H368.653V204.735L427.233 68.145ZM475.228 146.3V271H451.738L451.593 207.635L454.928 146.3H475.228Z" fill="#42527F"/>
</svg>
