<svg width="392" height="360" viewBox="0 0 392 360" fill="none" xmlns="http://www.w3.org/2000/svg">
<path d="M364.186 206.178C318.52 178.993 397.604 135.142 380.099 91.7503C362.593 48.3582 304.793 92.9794 273.697 114.353C242.601 135.726 206.154 97.4789 182.001 96.4582C157.848 95.4375 171.439 112.144 160.534 133.788C149.63 155.432 69.3395 137.455 37.1276 158.37C4.93854 179.284 56.2271 223.781 60.5523 250.32C64.8776 276.859 9.42314 306.878 44.9359 346.27L221.429 345.499C239.186 341.416 250.773 338.187 250.773 338.187C416.044 284.9 409.852 233.363 364.186 206.178Z" fill="#EAEDF8"/>
<path d="M95.0364 88.1369L56.1318 52.5358C55.3806 51.8484 55.3806 50.7234 56.1318 50.0151C56.883 49.3277 58.1123 49.3277 58.8863 50.0151L97.7909 85.6163C98.5421 86.3037 98.5421 87.4286 97.7909 88.1369C97.0169 88.8243 95.7876 88.8243 95.0364 88.1369Z" fill="#283477"/>
<path d="M89.8228 70.6592L75.208 57.2854C74.4567 56.598 74.4567 55.4731 75.208 54.7648C75.9592 54.0774 77.1885 54.0774 77.9625 54.7648L92.5773 68.1386C93.3286 68.826 93.3286 69.9509 92.5773 70.6592C91.8033 71.3466 90.574 71.3466 89.8228 70.6592Z" fill="#283477"/>
<path d="M95.0361 100.844L42.2451 52.5358C41.4938 51.8484 41.4938 50.7234 42.2451 50.0151C42.9963 49.3277 44.2256 49.3277 44.9996 50.0151L97.7906 98.3235C98.5418 99.0109 98.5418 100.136 97.7906 100.844C97.0166 101.532 95.7873 101.532 95.0361 100.844Z" fill="#283477"/>
<path d="M92.1227 110.906L31.2275 55.1814C30.4763 54.494 30.4763 53.3691 31.2275 52.6608C31.9787 51.9734 33.208 51.9734 33.982 52.6608L94.8772 108.385C95.6284 109.073 95.6284 110.197 94.8772 110.906C94.1259 111.593 92.8967 111.593 92.1227 110.906Z" fill="#283477"/>
<path d="M87.388 119.259L22.122 59.5351C21.3708 58.8476 21.3708 57.7228 22.122 57.0145C22.8732 56.327 24.1025 56.327 24.8765 57.0145L90.1425 116.739C90.8938 117.426 90.8938 118.551 90.1425 119.259C89.3685 119.947 88.1392 119.947 87.388 119.259Z" fill="#283477"/>
<path d="M81.1275 126.259L14.4501 65.243C13.6989 64.5556 13.6989 63.4306 14.4501 62.7223C15.2014 62.0349 16.4307 62.0349 17.2047 62.7223L83.8821 123.738C84.6333 124.425 84.6333 125.55 83.8821 126.259C83.1308 126.946 81.9015 126.946 81.1275 126.259Z" fill="#283477"/>
<path d="M73.4788 131.966L8.21284 72.2424C7.46161 71.555 7.46161 70.4301 8.21284 69.7218C8.96407 69.0344 10.1934 69.0344 10.9673 69.7218L76.2333 129.446C76.9846 130.133 76.9846 131.258 76.2333 131.966C75.4821 132.675 74.2528 132.675 73.4788 131.966Z" fill="#283477"/>
<path d="M64.3502 136.32L3.45502 80.5958C2.70379 79.9084 2.70379 78.7835 3.45502 78.0752C4.20625 77.3877 5.43554 77.3877 6.20953 78.0752L67.1047 133.8C67.8559 134.487 67.8559 135.612 67.1047 136.32C66.3535 137.008 65.1015 137.008 64.3502 136.32Z" fill="#283477"/>
<path d="M53.3544 138.966L0.563423 90.6576C-0.187808 89.9701 -0.187808 88.8452 0.563423 88.137C1.31465 87.4495 2.54394 87.4495 3.31793 88.137L56.1089 136.445C56.8601 137.133 56.8601 138.258 56.1089 138.966C55.3577 139.674 54.1284 139.674 53.3544 138.966Z" fill="#283477"/>
<path d="M39.468 138.966L0.563423 103.365C-0.187808 102.677 -0.187808 101.552 0.563423 100.844C1.31465 100.157 2.54394 100.157 3.31793 100.844L42.2453 136.445C42.9966 137.133 42.9966 138.258 42.2453 138.966C41.4713 139.674 40.242 139.674 39.468 138.966Z" fill="#283477"/>
<path d="M20.3911 134.195L5.77631 120.822C5.02508 120.134 5.02508 119.009 5.77631 118.301C6.52754 117.614 7.75683 117.614 8.53082 118.301L23.1457 131.675C23.8969 132.362 23.8969 133.487 23.1457 134.195C22.3717 134.904 21.1424 134.904 20.3911 134.195Z" fill="#283477"/>
<path d="M345.265 352.489C345.265 357.301 235.085 364.426 154.794 356.322C73.5476 348.114 28.3145 354.926 28.3145 350.114C28.3145 345.302 102.959 341.427 184.707 341.427C266.454 341.427 345.265 347.677 345.265 352.489Z" fill="#656BA3"/>
<path d="M93.8535 350.114H112.93L100.728 343.219L102.049 337.74C99.2715 337.74 98.5885 339.469 95.7657 339.469C94.9917 343.49 93.8535 350.114 93.8535 350.114Z" fill="#432C47"/>
<path d="M165.289 117.426L179.79 110.468L179.358 115.051L176.603 127.633L166.109 125.009L165.289 117.426Z" fill="#FBD3C1"/>
<path d="M195.225 114.301C191.423 115.718 178.083 115.364 178.083 115.364C178.083 115.364 167.862 122.738 168.295 124.425C168.727 126.113 169.365 125.675 170.594 127.113C171.8 128.55 174.714 129.946 174.714 129.946C174.714 129.946 176.922 131.945 179.563 131.383C182.204 130.821 188.601 124.717 191.492 124.113C192.084 123.988 194.656 123.446 198.389 122.655L195.225 114.301Z" fill="#E9BFAC"/>
<path d="M179.79 110.468C179.79 110.468 187.78 116.218 187.051 117.301C186.323 118.384 178.287 115.364 178.287 115.364L179.79 110.468Z" fill="#FBD3C1"/>
<path d="M191.651 124.696C191.651 124.696 183.797 121.321 182.978 122.53C182.158 123.738 186.324 125.842 186.324 125.842C186.324 125.842 181.862 123.967 181.111 124.488C180.36 125.009 184.23 127.613 184.23 127.613C184.23 127.613 179.904 125.425 178.789 126.029C177.673 126.654 181.543 130.466 181.543 130.466C181.543 130.466 192.106 128.321 191.651 124.696Z" fill="#FBD3C1"/>
<path d="M257.485 141.736L244.168 143.528L251.658 111.968L258.874 115.364L257.485 141.736Z" fill="#231941"/>
<path d="M257.781 58.431C257.781 58.431 233.81 90.1366 228.848 94.6779C223.885 99.2192 191.65 113.947 191.65 113.947L197.137 124.509L235.814 106.427L259.352 86.6786L257.781 58.431Z" fill="#5CB29C"/>
<path d="M286.875 339.365L286.67 351.031L288.081 351.072L289.903 337.761L286.875 339.365Z" fill="#1E1D23"/>
<path d="M277.063 236.832C277.063 236.832 278.588 255.06 281.024 260.518C283.46 265.976 279.112 337.99 277.04 343.782C276.585 345.073 275.97 346.219 275.31 347.219C273.057 350.76 272.533 351.489 275.561 351.489C279.453 351.51 282.868 350.823 283.619 349.364C284.917 346.844 286.078 338.157 288.741 338.178C288.741 338.178 290.562 334.949 290.107 333.241C289.424 330.679 287.512 331.991 287.535 328.429C287.558 324.867 300.465 270.705 298.439 262.809C296.413 254.935 294.979 253.977 295.024 244.603C295.047 235.228 277.063 236.832 277.063 236.832Z" fill="#FBD3C1"/>
<path d="M268.253 217.73C268.253 217.73 253.729 243.082 254.64 250.581C255.573 258.081 258.646 264.143 256.006 274.392C253.365 284.641 232.535 321.804 232.035 328.595C231.83 331.449 232.786 331.72 232.786 331.72C232.74 336.657 231.056 341.948 229.94 342.969C228.506 344.281 226.89 350.781 225.501 350.781C224.135 350.781 212.594 351.906 212.594 351.906C212.298 349.489 215.826 351.427 217.898 346.427C219.969 341.428 221.221 333.928 223.862 323.804C226.503 313.68 237.293 267.496 237.339 256.872C237.384 246.248 236.314 246.186 238.113 239.186C239.911 232.187 246.649 219.084 246.649 219.084L268.253 217.73Z" fill="#FBD3C1"/>
<path d="M254.663 250.581C253.729 243.082 268.276 217.73 268.276 217.73L246.672 219.084C246.672 219.084 239.934 232.187 238.136 239.186C236.815 244.311 237.043 245.707 237.225 250.29C241.345 251.102 247.788 252.289 255.118 253.373C254.936 252.477 254.777 251.539 254.663 250.581Z" fill="#E9BFAC"/>
<path d="M295.025 244.603C295.048 235.228 277.063 236.832 277.063 236.832C277.063 236.832 278.042 248.456 279.659 255.914C285.737 256.185 291.496 256.081 296.254 255.352C295.48 252.602 295.002 249.998 295.025 244.603Z" fill="#E9BFAC"/>
<path d="M253.092 130.841C253.092 130.841 250.565 166.547 248.653 175.046C246.74 183.545 235.813 243.832 235.813 243.832C235.813 243.832 284.507 247.581 296.276 243.832C296.276 243.832 297.596 166.484 294.819 156.548C292.042 146.611 279.954 128.508 279.954 128.508L253.092 130.841Z" fill="#5CB29C"/>
<path opacity="0.53" d="M253.092 130.841C253.092 130.841 252.955 132.675 252.75 135.591C256.416 138.924 261.492 144.299 263.518 150.111C265.817 156.735 283.574 155.756 294.182 154.548C290.562 144.361 279.954 128.508 279.954 128.508L253.092 130.841Z" fill="#1B1230"/>
<path d="M278.269 55.4312L263.495 54.4521L258.259 63.8055L279.271 65.8262L278.269 55.4312Z" fill="#231941"/>
<path d="M257.782 58.431C257.782 58.431 264.52 53.7439 287.307 58.4518C287.922 58.5768 288.491 81.1791 288.491 81.1791C288.491 81.1791 277.906 119.072 279.932 128.529C279.932 128.529 267.844 137.862 249.791 129.737C249.791 129.737 252.136 99.9899 250.497 93.3655C248.858 86.7411 245.58 80.7207 250.224 73.8463C254.891 66.9511 257.782 58.431 257.782 58.431Z" fill="#FFF7D0"/>
<path d="M261.97 89.2618V133.008C273.079 133.862 279.931 128.571 279.931 128.571C277.928 119.113 288.491 81.2208 288.491 81.2208C288.491 81.2208 287.922 58.5769 287.307 58.4519C283.688 57.702 280.478 57.202 277.632 56.8687L261.97 89.2618Z" fill="#D1CCB2"/>
<path d="M278.269 55.4311L265.362 89.2199V145.298L293.863 146.548L283.938 134.653L280.569 119.738L288.491 81.179L287.307 58.4309L278.269 55.4311Z" fill="#209D7D"/>
<path d="M263.495 54.4521L252.887 86.6994L250.132 143.528H244.168L250.565 113.489L246.831 79.6375L257.508 57.7643L263.495 54.4521Z" fill="#4B8475"/>
<path d="M278.269 55.4311L265.362 89.2199L281.843 69.5549L284.598 56.3269L278.269 55.4311Z" fill="#4B8475"/>
<path d="M263.495 54.4521L252.887 86.6994L253.843 63.6181L258.259 55.4312L263.495 54.4521Z" fill="#4B8475"/>
<path d="M288.354 137.758C288.718 137.424 291.951 133.07 292.657 133.695C293.34 134.32 289.788 138.341 289.788 138.341C289.788 138.341 293.909 134.529 294.728 135.279C295.548 136.029 289.219 141.174 288.559 141.174C287.899 141.153 288.354 137.758 288.354 137.758Z" fill="#FBD3C1"/>
<path d="M282.777 133.445C282.777 133.445 281.024 135.883 282.322 137.049C283.597 138.216 282.914 139.445 283.779 140.237C284.644 141.028 288.536 141.153 288.536 141.153C288.536 141.153 288.81 137.716 290.745 133.779C291.109 133.05 292.247 131.612 293.863 129.737C292.133 128.696 290.335 127.758 288.491 126.925C285.258 130.737 282.845 133.341 282.777 133.445Z" fill="#E9BFAC"/>
<path d="M287.307 58.431C287.307 58.431 285.053 74.8671 287.307 79.4084C289.515 83.8247 302.377 88.9076 304.585 97.8443C306.224 104.51 292.998 118.051 285.986 126.363C287.739 127.967 293.066 131.154 294.796 132.196C301.922 123.905 319.883 104.365 320.338 99.8025C320.884 94.178 296.868 57.8477 287.307 58.431Z" fill="#5CB29C"/>
<path d="M287.307 58.431C286.965 62.264 286.692 65.9304 286.624 69.8467C286.556 76.7628 287.011 78.9293 288.673 80.6583C292.543 84.7621 302.901 89.7617 304.585 97.8235C302.172 89.845 292.156 85.4079 288.126 81.0957C286.601 79.4917 286.305 77.7627 286.123 75.5963C285.691 70.4925 286.442 63.5764 287.307 58.431Z" fill="#54597E"/>
<path d="M287.808 330.262C286.602 336.782 282.618 348.01 279.863 349.073C275.31 349.947 275.288 349.51 275.31 347.239C273.057 350.781 270.484 352.593 273.512 352.593C277.405 352.614 283.483 352.843 284.234 351.385C285.532 348.864 286.283 339.323 288.946 339.323L288.081 351.072L289.493 351.114C289.493 351.114 291.655 334.928 291.2 333.324C290.585 331.095 288.559 330.658 287.808 330.262Z" fill="#3B3745"/>
<path d="M216.487 348.719C213.322 350.51 209.384 350.552 209.634 352.489C209.634 352.489 224.591 351.947 225.957 351.947C227.322 351.947 228.506 344.261 229.963 342.948C231.397 341.636 230.487 351.947 230.487 351.947H231.966C231.966 351.947 232.991 341.323 234.379 337.199C235.472 333.907 233.947 332.532 232.832 331.699C228.279 339.553 227.801 350.593 216.487 348.719Z" fill="#3B3745"/>
<path d="M148.511 183.399C148.511 183.399 154.862 201.023 156 202.835C157.139 204.648 157.161 212.918 155.34 214.043C153.519 215.167 154.839 210.689 154.361 208.314C153.883 205.939 151.516 202.794 151.516 202.794C151.516 202.794 153.474 205.252 154.111 208.21C154.589 210.48 153.974 213.376 153.109 213.834C151.152 214.876 152.745 212.105 152.085 208.793C151.425 205.502 149.444 203.939 149.444 203.939C149.444 203.939 151.083 210.085 149.353 210.98C147.623 211.855 141.613 187.003 141.613 187.003L148.511 183.399Z" fill="#FBD3C1"/>
<path d="M125.975 62.6599C125.975 62.6599 136.333 76.5754 137.767 93.2198C138.359 100.136 137.835 134.466 141.5 148.757C146.235 167.255 152.837 184.941 152.837 184.941L137.494 193.44L125.428 149.382L122.15 117.988L125.975 62.6599Z" fill="#393B8A"/>
<path d="M113.728 207.522L92.625 342.927L102.641 341.386L119.829 267.976C119.829 267.976 131.165 199.856 131.165 175.254L113.728 207.522Z" fill="#1E1E1C"/>
<path d="M58.8643 351.073H78.3507L66.1489 344.177L67.4693 338.699C64.692 338.699 64.0091 340.428 61.1863 340.428C60.3895 344.448 58.8643 351.073 58.8643 351.073Z" fill="#432C47"/>
<path d="M99.1575 52.0358L98.4062 62.6807L125.974 59.8059L119.532 52.5774L99.1575 52.0358Z" fill="#395967"/>
<path d="M135.012 133.716C134.944 97.5944 128.889 61.66 120.261 57.0979C120.261 57.0979 110.245 56.4729 105.077 56.3063C97.3827 56.0771 91.3956 59.6185 84.9988 79.5543C80.9694 92.1157 80.4003 120.134 80.8328 146.549C81.015 158.256 82.2215 170.005 82.4947 178.296C104.235 178.296 113.614 179.15 134.694 179.15C136.037 143.403 135.035 144.465 135.012 133.716Z" fill="#D4E8D6"/>
<path d="M120.261 57.0978C120.261 57.0978 131.939 61.8682 135.49 93.9696C139.064 126.071 143.981 191.586 143.981 191.586H127.728C127.728 191.586 125.975 97.9692 125.975 91.5531C125.975 85.137 120.261 57.0978 120.261 57.0978Z" fill="url(#paint0_linear_257_846)"/>
<path d="M91.4183 102.574C91.4183 102.574 91.3955 102.553 91.3955 102.531C91.6687 102.531 91.646 102.531 91.4183 102.574Z" fill="#EE7576"/>
<path d="M127.113 155.506L85.9092 156.443L82.4946 176.817L81.1514 263.497C81.1514 263.497 61.2097 324.575 57.2031 344.865C57.2031 344.865 68.5854 344.219 67.948 344.219L101.48 271.746L116.619 205.543L129.025 179.796L127.113 155.506Z" fill="#1E1E1C"/>
<path opacity="0.57" d="M119.531 195.628C119.281 183.65 118.666 169.442 117.938 155.714L85.9083 156.444L82.4936 176.817L82.2432 193.211L119.531 195.628Z" fill="#272943"/>
<path d="M85.932 156.423L84.8848 162.484H127.682L127.113 155.506L85.932 156.423Z" fill="#3C1C36"/>
<path d="M126.566 155.985H115.662V161.526H126.566V155.985Z" fill="#A080B9"/>
<path opacity="0.53" d="M126.566 155.985H115.662V156.506C117.756 156.443 123.243 156.527 124.244 158.756C124.745 159.881 125.041 160.797 125.223 161.526H126.566V155.985Z" fill="#AA94C2"/>
<path d="M116.641 205.564L98.498 270.829L67.9707 344.24L101.503 271.767L116.641 205.564Z" fill="#75567B"/>
<path d="M109.811 99.865C109.879 100.302 96.9945 57.3686 96.9945 57.3686C96.9945 57.3686 92.6692 58.4519 86.9326 61.2641L78.6235 85.3454C78.6235 85.3454 75.1861 129.3 75.1861 132.779C75.1861 134.654 71.0657 162.735 67.2412 188.295L114.273 191.586C113.567 155.943 109.811 99.865 109.811 99.865Z" fill="#393B8A"/>
<path opacity="0.57" d="M110.7 113.843C110.7 113.843 81.5839 82.804 78.5107 86.7412C78.2375 90.3034 77.4635 100.157 76.7578 109.843C84.1108 126.821 107.877 154.548 113.204 160.652C112.43 143.132 111.405 125.571 110.7 113.843Z" fill="#272943"/>
<path d="M109.812 99.865L114.273 191.586C114.273 191.586 112.566 100.99 109.812 99.865Z" fill="#714A7B"/>
<path d="M105.441 43.4115C104.963 43.1407 99.0443 29.6627 99.0443 29.6627C99.0443 29.6627 95.0833 19.5386 97.6556 17.8304C100.205 16.1222 106.261 10.1852 111.588 10.0602C116.892 9.95606 120.466 11.4143 120.944 11.6851C121.422 11.9559 124.859 17.2888 124.859 17.2888C124.859 17.2888 123.266 15.4973 122.424 22.1425C121.604 28.7878 105.441 43.4115 105.441 43.4115Z" fill="#381A3F"/>
<path d="M118.848 42.8074C118.211 44.5364 118.484 56.827 117.983 59.91C117.482 62.9723 102.253 67.7011 101.957 56.577C101.661 45.453 102.867 32.3916 102.867 32.3916L118.848 42.8074Z" fill="#FBD3C1"/>
<path d="M118.85 42.8074L113.546 39.3494L102.869 32.4125C102.869 32.4125 102.869 32.4125 102.869 32.4333C102.869 32.4333 102.869 32.4333 102.869 32.4541C102.869 32.4958 102.847 32.5791 102.847 32.7041C102.801 33.0999 102.733 33.9124 102.664 35.0373C102.642 35.2664 102.619 35.4956 102.619 35.7455C102.619 35.7664 102.619 35.7872 102.619 35.7872C102.551 36.5996 102.505 37.5162 102.437 38.537C102.437 38.5995 102.437 38.6619 102.437 38.7036C102.414 38.9536 102.414 39.2036 102.391 39.4535C102.391 39.5785 102.368 39.7244 102.368 39.8494C102.368 39.8702 102.368 39.8702 102.368 39.891C102.368 39.9327 102.368 39.9952 102.368 40.0368C102.368 40.0577 102.368 40.0785 102.368 40.0993C102.368 40.1826 102.368 40.266 102.346 40.3701C104.326 46.328 111.839 52.8065 118.326 53.5565C118.349 53.1398 118.372 52.7232 118.395 52.3066C118.44 48.1611 118.509 43.7865 118.85 42.8074Z" fill="#E9BFAC"/>
<path d="M102.277 22.2258C100.319 26.6629 100.228 34.7872 104.872 40.9534C109.516 47.0987 115.958 50.265 120.556 47.1611C125.155 44.0572 126.475 24.6006 123.152 19.601C119.805 14.6015 105.236 15.4555 102.277 22.2258Z" fill="#FBD3C1"/>
<path d="M102.276 40.8909C102.276 40.8909 101.252 34.5372 98.5658 32.9749C95.9024 31.4333 94.6958 30.4751 94.2178 28.2253C93.7397 25.9755 84.8388 24.4756 86.2957 20.7884C87.7526 17.1012 94.7186 15.3723 98.2699 8.93532C101.821 2.51921 105.646 -1.04302 113.886 1.29012C122.15 3.62325 123.288 8.24785 123.288 8.24785C123.288 8.24785 126.93 7.66459 129.161 11.6642C131.392 15.6639 129.799 17.9137 128.365 19.7885C128.365 19.7885 128.683 14.5181 126.703 14.8931C124.722 15.2681 126.726 21.0592 126.726 21.0592C126.726 21.0592 123.766 18.8303 120.602 15.4139C117.438 11.9767 118.212 15.9972 119.145 20.351C120.078 24.7048 113.067 20.601 109.948 17.4554C106.829 14.3099 102.367 17.2471 100.751 21.705C99.1121 26.163 106.124 33.1832 102.276 40.8909Z" fill="#653870"/>
<path d="M103.802 29.2043C103.802 29.2043 100.888 24.663 99.3856 26.642C97.8603 28.621 99.1124 34.5372 102.322 34.5788C105.532 34.6205 103.802 29.2043 103.802 29.2043Z" fill="#FBD3C1"/>
<path d="M102.163 29.5376C102.163 29.5376 102.277 26.892 100.706 27.7669C99.1352 28.6419 100.729 32.8707 102.163 32.7874C103.597 32.704 102.163 29.5376 102.163 29.5376Z" fill="#E9BFAC"/>
<path d="M272.259 7.22722C273.17 7.99799 281.957 6.83143 289.378 14.1433C299.213 23.8091 298.029 46.4113 298.029 46.4113C298.029 46.4113 287.603 48.5778 283.482 48.7445C279.362 48.8903 270.985 47.8071 266.5 47.2029C261.924 46.578 259.466 23.0592 262.539 16.8305C265.612 10.5811 272.259 7.22722 272.259 7.22722Z" fill="#2F172C"/>
<path d="M272.26 7.2272C272.26 7.2272 262.471 6.70641 260.035 12.4976C257.599 18.2887 258.624 36.7871 255.232 38.7036C255.232 38.7036 257.782 40.1827 259.944 40.0994C259.944 40.0994 261.356 42.3908 257.964 45.7447C257.964 45.7447 262.152 47.1821 266.478 47.1821C266.774 47.1821 269.961 47.9945 270.234 45.5364C270.575 42.62 268.048 36.183 268.367 33.3708C269.801 21.4551 272.26 7.2272 272.26 7.2272Z" fill="#462241"/>
<path d="M272.078 8.2896C271.144 8.2896 270.279 8.37293 269.505 8.56042C269.505 8.56042 261.105 11.7685 260.741 17.4347C260.354 23.08 261.219 25.2881 260.536 28.9337C259.466 34.6832 263.45 45.3698 270.302 45.2448C270.461 42.2242 268.094 36.0997 268.412 33.3708C269.573 23.3925 271.486 11.8101 272.078 8.2896Z" fill="#341930"/>
<path d="M267.98 42.8908C267.98 42.8908 266.409 53.8065 264.77 56.6813C263.131 59.556 260.513 72.1174 262.812 72.1174C265.112 72.1174 275.765 62.3475 276.471 58.3895C277.154 54.4315 280.501 38.0996 280.501 38.0996L267.98 42.8908Z" fill="#FBD3C1"/>
<path d="M268.208 41.6617C268.117 41.7034 267.866 43.9532 267.843 44.0574C267.456 46.4947 267.365 46.328 267.456 46.6613C268.344 49.2028 271.941 50.8068 277.222 46.4738C277.382 46.328 279.135 44.849 279.157 44.7031C279.909 41.016 280.5 38.0996 280.5 38.0996C280.5 38.0996 268.299 41.6201 268.208 41.6617Z" fill="#E9BFAC"/>
<path d="M270.218 8.88967C270.218 8.88967 262.296 11.9727 261.931 17.3681C261.567 22.7843 262.387 24.8883 261.749 28.388C261.112 31.8877 262.751 41.2618 268.761 43.6158C274.771 45.9906 282.761 36.9289 284.15 32.8459C285.538 28.7838 286.039 22.951 284.514 16.5974C283.011 10.2437 274.634 7.78559 270.218 8.88967Z" fill="#FBD3C1"/>
<path d="M279.863 38.8495C282.049 36.6414 283.71 34.1416 284.302 32.4751C285.691 28.4129 286.192 22.5801 284.666 16.2265C283.141 9.85203 274.787 7.39388 270.37 8.51879C270.37 8.51879 262.448 11.6019 262.084 16.9972C261.97 18.8096 261.97 20.247 262.016 21.4969L269.483 21.2677C269.483 21.2677 269.027 15.4557 270.507 13.9975L270.757 20.9761L275.879 21.0177C275.879 21.0177 277.746 17.9555 277.632 15.289C277.632 15.289 277.814 19.0179 276.767 21.0386C276.767 21.0386 280.933 20.851 281.024 22.83C281.092 24.4549 280.478 34.579 280.159 37.2663C280.068 37.8079 279.977 38.3495 279.863 38.8495Z" fill="#9D6951"/>
<path d="M295.139 17.9138C289.151 6.62312 278.293 4.95659 272.26 7.22723C268.413 7.41471 264.042 8.8729 262.13 11.831C259.125 16.4348 261.538 20.851 261.538 20.851L268.663 20.7885C268.663 20.7885 268.937 14.1016 270.439 12.6226L270.78 20.7052L275.834 20.5178C275.834 20.5178 277.473 16.4139 277.359 13.7475C277.359 13.7475 278.338 18.4346 277.314 20.4553C277.314 20.4553 280.911 20.8302 281.002 22.7884C281.07 24.4133 280.455 34.5374 280.137 37.2246C279.545 42.2867 276.494 45.0156 276.449 45.099C276.449 45.099 288.332 47.0155 290.791 44.5782L289.538 47.9737C289.538 47.9737 296.208 47.2654 298.03 46.3905C299.874 45.5364 298.599 24.4133 295.139 17.9138Z" fill="#4C2A54"/>
<path d="M262.13 11.831C259.125 16.4347 261.538 20.851 261.538 20.851L268.663 20.7885C268.663 20.7885 268.937 14.1016 270.439 12.6226L270.78 20.7052L275.834 20.5177C275.834 20.5177 277.473 16.4139 277.359 13.7475C277.359 13.7475 278.338 18.4346 277.314 20.4553C277.314 20.4553 280.911 20.8302 281.002 22.7884C281.07 24.4132 280.455 34.5373 280.137 37.2246C280.114 37.5163 280.068 37.7871 280 38.0787C286.647 31.9959 285.509 17.393 283.734 12.2476C281.958 7.0814 272.26 7.20636 272.26 7.20636C268.436 7.39384 264.065 8.87288 262.13 11.831Z" fill="#653870"/>
<path d="M272.282 7.68554C281.274 7.24808 287.626 9.10207 290.79 16.8514C293.863 24.3091 296.913 35.8706 294.068 43.3908L291.131 42.37C293.863 36.3706 292.224 26.3714 290.38 20.0386C288.058 12.1226 285.076 7.76887 272.282 7.68554Z" fill="#653870"/>
<path d="M270.735 8.10316C267.662 8.93643 264.292 10.353 262.927 12.9777C261.652 15.415 262.244 18.2273 262.813 20.8313H263.564C262.13 15.3317 261.379 10.9987 270.735 8.10316Z" fill="#363A68"/>
<path d="M271.054 8.31047C264.725 10.7894 264.976 15.2682 266.524 20.7885H267.275C265.294 15.3515 264.816 10.9561 271.054 8.31047Z" fill="#363A68"/>
<path d="M272.214 8.06049C274.218 12.5184 273.808 16.1848 272.579 20.6428L273.307 20.6219C274.218 16.1431 274.4 12.3518 272.214 8.06049Z" fill="#363A68"/>
<path d="M119.532 52.5774L126.066 98.136L128.228 75.6588L125.975 73.159V59.806L119.532 52.5774Z" fill="#1E1E1C"/>
<path d="M101.935 50.89L109.698 61.4933L105.941 68.0136L94.4453 55.3688L99.1576 52.0357L101.935 50.89Z" fill="#E6F2E7"/>
<path d="M119.532 52.5774L116.276 60.9517L119.532 65.7013L121.125 57.6395L119.532 52.5774Z" fill="#F4F9F5"/>
<path d="M109.811 99.865L99.1567 52.0358L88.1387 59.8684L97.7681 76.2421L97.0624 81.3666L109.811 99.865Z" fill="#1E1E1C"/>
<path d="M116.277 60.9516L113.659 62.889L109.675 61.5141L107.535 65.243C107.535 65.243 116.277 65.6804 118.257 63.8472L116.277 60.9516Z" fill="#A4C1AD"/>
<path d="M110.039 61.4933L116.072 61.0975L115.867 65.9305L111.086 66.1388L110.039 61.4933Z" fill="#6EA4C2"/>
<path d="M111.086 66.1387L115.866 65.9304L125.132 146.548L121.102 152.298L113.59 147.653L111.086 66.1387Z" fill="#393B8A"/>
<path d="M158.938 118.426L165.721 117.238L166.541 126.363L158.938 130.466V118.426Z" fill="#D4E8D6"/>
<path d="M162.83 117.738L158.938 118.426V130.466L164.629 127.404L162.83 117.738Z" fill="#9EBFA8"/>
<path d="M86.9333 61.2433C86.9333 61.2433 76.7575 67.9927 77.9868 87.1786C78.8519 100.532 114.274 141.153 114.274 141.153L163.559 133.029L162.238 117.53L126.407 119.03L86.9333 61.2433Z" fill="#393B8A"/>
<path d="M126.726 118.509C113.136 98.4692 101.23 80.9707 86.9336 61.2433C100.387 82.179 112.271 99.4483 126.111 119.592C142.98 118.718 148.307 118.488 162.239 117.551C156.274 117.655 132.417 118.28 126.726 118.509Z" fill="#714A7B"/>
<path d="M176.124 142.611C175.783 142.611 175.487 142.382 175.464 142.049C175.441 141.716 175.715 141.424 176.056 141.403C203.26 139.299 207.152 126.342 207.198 126.217C207.289 125.904 207.653 125.696 207.995 125.779C208.359 125.863 208.564 126.196 208.473 126.508C208.313 127.071 204.398 140.424 176.17 142.611C176.17 142.611 176.147 142.611 176.124 142.611Z" fill="#59307E"/>
<path d="M198.388 142.611C198.138 142.611 197.887 142.466 197.773 142.236C197.637 141.924 197.796 141.57 198.138 141.445C215.12 134.987 215.78 124.592 215.78 124.488C215.803 124.155 216.122 123.905 216.463 123.905C216.827 123.925 217.123 124.196 217.1 124.53C217.078 124.988 216.463 135.779 198.638 142.549C198.57 142.59 198.479 142.611 198.388 142.611Z" fill="#59307E"/>
<path d="M312.03 31.2459C311.666 31.2459 311.37 30.9751 311.37 30.6418C311.37 13.3308 304.085 2.3526 304.017 2.22761C303.834 1.93597 303.926 1.56095 304.221 1.3943C304.54 1.22764 304.95 1.31096 305.132 1.58177C305.2 1.68593 312.69 12.9558 312.69 30.6209C312.69 30.9751 312.394 31.2459 312.03 31.2459Z" fill="#59307E"/>
<path d="M80.7408 36.2871C80.5131 36.2871 80.2855 36.183 80.1716 35.9955C70.8382 21.2051 81.2188 1.18601 81.6741 0.331916C81.8335 0.0402749 82.2205 -0.0847245 82.5619 0.0610963C82.8806 0.206917 83.0172 0.56102 82.8578 0.873493C82.744 1.08181 72.3179 21.1634 81.3099 35.3914C81.492 35.683 81.3782 36.058 81.0595 36.2246C80.9684 36.2663 80.8546 36.2871 80.7408 36.2871Z" fill="#59307E"/>
<defs>
<linearGradient id="paint0_linear_257_846" x1="120.272" y1="124.341" x2="143.998" y2="124.341" gradientUnits="userSpaceOnUse">
<stop stop-color="#2A1E4D"/>
<stop offset="1" stop-color="#33245D"/>
</linearGradient>
</defs>
</svg>
