<svg width="20" height="20" viewBox="0 0 20 20" fill="none" xmlns="http://www.w3.org/2000/svg">
<path d="M10 -8.74228e-07C15.523 -3.91392e-07 20 4.477 20 10C20 15.523 15.523 20 10 20C4.477 20 3.91392e-07 15.523 8.74228e-07 10C1.35706e-06 4.477 4.477 -1.35706e-06 10 -8.74228e-07ZM10 2C7.87827 2 5.84344 2.84285 4.34315 4.34314C2.84285 5.84343 2 7.87827 2 10C2 12.1217 2.84285 14.1566 4.34315 15.6569C5.84344 17.1571 7.87827 18 10 18C12.1217 18 14.1566 17.1571 15.6569 15.6569C17.1571 14.1566 18 12.1217 18 10C18 7.87827 17.1571 5.84344 15.6569 4.34314C14.1566 2.84285 12.1217 2 10 2ZM11 15L9 15L9 13L11 13L11 15ZM11 11L9 11L9 5L11 5L11 11Z" fill="#DB0000" fill-opacity="0.46"/>
</svg>
