<svg width="50" height="47" viewBox="0 0 50 47" fill="none" xmlns="http://www.w3.org/2000/svg">
<path d="M20.4514 46.0925C19.8341 46.0925 19.2211 45.9306 18.6799 45.619L13.0414 42.2808C12.1992 41.8098 12.6101 41.6432 12.8879 41.5472C14.0108 41.154 14.2387 41.0653 15.4372 40.3846C15.5632 40.3127 15.7281 40.3381 15.8571 40.4142L20.1888 42.9847C20.3452 43.0692 20.5672 43.0692 20.7122 42.9847L37.6021 33.2355C37.7585 33.1467 37.86 32.9649 37.86 32.7789V13.2889C37.86 13.0944 37.7585 12.9211 37.5987 12.8238L20.7156 3.08309C20.5592 2.99008 20.352 2.99008 20.1956 3.08309L3.31583 12.8238C3.15222 12.9169 3.04822 13.0986 3.04822 13.2847V32.7746C3.04822 32.9607 3.14968 33.1382 3.31034 33.227L7.9355 35.8989C10.4468 37.1546 11.9815 35.6749 11.9815 34.1867V14.9504C11.9815 14.6756 12.1971 14.4642 12.4719 14.4642H14.6111C14.8775 14.4642 15.0973 14.6756 15.0973 14.9504V34.1952C15.0973 37.5435 13.2709 39.4672 10.0959 39.4672C9.11928 39.4672 8.34982 39.4672 6.20212 38.4102L1.77143 35.8567C0.676442 35.2225 0 34.0387 0 32.7746V13.2847C0 12.0163 0.676442 10.8326 1.77143 10.2069L18.6782 0.453427C19.7479 -0.151142 21.1684 -0.151142 22.2296 0.453427L39.1152 10.2111C40.206 10.841 40.8867 12.0206 40.8867 13.2889V32.7789C40.8867 34.043 40.206 35.2225 39.1152 35.8567L22.2296 45.6101C21.6884 45.923 21.0754 46.0836 20.4497 46.0836" fill="#689F63"/>
<path d="M25.6684 32.6626C18.2782 32.6626 16.7288 29.2702 16.7288 26.4249C16.7288 26.1543 16.9469 25.9387 17.2179 25.9387H19.3994C19.6404 25.9387 19.8433 26.1142 19.8814 26.3522C20.2112 28.5752 21.192 29.6964 25.6607 29.6964C29.2205 29.6964 30.7341 28.8922 30.7341 27.0046C30.7341 25.918 30.3028 25.1105 24.7729 24.5694C20.1478 24.1128 17.2898 23.0939 17.2898 19.3946C17.2898 15.987 20.1647 13.9577 24.9801 13.9577C30.3874 13.9577 33.0678 15.8348 33.406 19.8681C33.4187 20.0076 33.368 20.1429 33.2749 20.2444C33.1819 20.3416 33.0509 20.4008 32.9156 20.4008H30.7214C30.4931 20.4008 30.2944 20.2401 30.2479 20.0203C29.7194 17.6823 28.4426 16.934 24.9716 16.934C21.0863 16.934 20.6339 18.2869 20.6339 19.3016C20.6339 20.5319 21.1666 20.8912 26.4091 21.5846C31.6007 22.2737 34.0655 23.2461 34.0655 26.8946C34.0655 30.5728 30.9962 32.6824 25.6438 32.6824L25.6684 32.6626ZM46.2161 12.0129H46.7826C47.2477 12.0129 47.3365 11.6874 47.3365 11.4971C47.3365 10.9983 46.994 10.9983 46.8038 10.9983H46.2203L46.2161 12.0129ZM45.527 10.4148H46.7826C47.2139 10.4148 48.0594 10.4148 48.0594 11.3788C48.0594 12.051 47.6282 12.1905 47.3703 12.275C47.8734 12.3089 47.9072 12.6386 47.9749 13.1037C48.0087 13.3954 48.0636 13.8985 48.1651 14.0676H47.3914C47.3703 13.8985 47.2519 12.9684 47.2519 12.9177C47.2012 12.7105 47.1293 12.609 46.8714 12.609H46.233V14.0718H45.527V10.4148ZM44.0177 12.2328C44.0177 13.7463 45.2395 14.9723 46.7404 14.9723C48.2539 14.9723 49.4757 13.7209 49.4757 12.2328C49.4757 10.715 48.237 9.51008 46.7361 9.51008C45.2564 9.51008 44.0134 10.6981 44.0134 12.2285L44.0177 12.2328ZM50 12.2412C50 14.0338 48.5329 15.4966 46.7446 15.4966C44.9689 15.4966 43.4892 14.0507 43.4892 12.2412C43.4892 10.3979 45.0027 8.98584 46.7446 8.98584C48.4991 8.98584 49.9957 10.4021 49.9957 12.2412" fill="#689F63"/>
</svg>
