<svg xmlns="http://www.w3.org/2000/svg" id="myLogo" width="450" height="50" xmlns:xlink="http://www.w3.org/1999/xlink" y="173.805" x="205.38" preserveAspectRatio="xMinYMin" zoom="1" editortype="buyer" data-layer-role="icon">
        <g transform="translate(0, 15)" data-horizontal-grow="center" zoom="1" root="[object Object]" style="fill: rgb(41, 41, 41); fill-opacity: 1;">
            <path d="M5.89 0.59L5.89 8.13L5.80 9.13L6.24 8.51L13.63 0.59L17.68 0.59L9.56 9.18L17.98 20.25L13.99 20.25L7.26 11.18L5.89 12.53L5.89 20.25L2.70 20.25L2.70 0.59L5.89 0.59ZM44.13 0.59L47.26 0.59L47.26 20.25L44.13 20.25L44.13 11.88L34.46 11.88L34.46 20.25L31.30 20.25L31.30 0.59L34.46 0.59L34.46 8.88L44.13 8.88L44.13 0.59ZM63.71 20.25L60.64 20.25L69.33-0.22L69.52-0.22L78.21 20.25L74.59 20.25L68.49 4.70L70.73 3.19L63.71 20.25ZM65.14 15.63L66.09 12.93L72.81 12.93L73.89 15.63L65.14 15.63ZM108.92 20.95L108.84 20.95L93.75 6.32L94.66 6.70L94.75 20.25L91.56 20.25L91.56-0.08L91.72-0.08L106.57 14.55L105.84 14.34L105.79 0.59L108.92 0.59L108.92 20.95ZM122.65 0.59L126.40 0.59L132.58 15.98L130.77 15.63L136.55 0.59L140.25 0.59L131.45 21.17L122.65 0.59ZM153.95 20.25L153.95 0.59L157.11 0.59L157.11 20.25L153.95 20.25ZM189.87 20.95L189.79 20.95L174.70 6.32L175.61 6.70L175.69 20.25L172.51 20.25L172.51-0.08L172.67-0.08L187.52 14.55L186.79 14.34L186.74 0.59L189.87 0.59L189.87 20.95ZM235.44 2.19L234.25 4.59Q233.20 4.05 232.01 3.66Q230.82 3.27 229.74 3.27L229.74 3.27Q228.28 3.27 227.43 3.91Q226.58 4.56 226.58 5.70L226.58 5.70Q226.58 6.51 227.16 7.11Q227.74 7.72 228.68 8.17Q229.61 8.61 230.63 9.02L230.63 9.02Q231.52 9.34 232.40 9.79Q233.28 10.23 233.98 10.88Q234.68 11.53 235.09 12.49Q235.49 13.45 235.49 14.85L235.49 14.85Q235.49 16.39 234.72 17.67Q233.95 18.95 232.50 19.71Q231.04 20.47 228.96 20.47L228.96 20.47Q227.72 20.47 226.54 20.20Q225.37 19.93 224.32 19.45Q223.26 18.98 222.37 18.39L222.37 18.39L223.78 15.93Q224.42 16.42 225.26 16.82Q226.10 17.23 226.99 17.47Q227.88 17.71 228.66 17.71L228.66 17.71Q229.50 17.71 230.32 17.43Q231.15 17.14 231.70 16.52Q232.25 15.90 232.25 14.88L232.25 14.88Q232.25 14.04 231.78 13.45Q231.31 12.85 230.53 12.41Q229.74 11.96 228.82 11.61L228.82 11.61Q227.91 11.26 226.96 10.83Q226.02 10.39 225.19 9.76Q224.37 9.13 223.86 8.21Q223.34 7.29 223.34 5.94L223.34 5.94Q223.34 4.32 224.10 3.13Q224.86 1.94 226.19 1.24Q227.53 0.54 229.28 0.49L229.28 0.49Q231.36 0.49 232.83 0.99Q234.31 1.48 235.44 2.19L235.44 2.19ZM248.44 10.45L248.44 10.45Q248.44 8.40 249.22 6.59Q250.00 4.78 251.38 3.38Q252.76 1.97 254.58 1.17Q256.40 0.38 258.48 0.38L258.48 0.38Q260.53 0.38 262.35 1.17Q264.18 1.97 265.57 3.38Q266.96 4.78 267.75 6.59Q268.55 8.40 268.55 10.45L268.55 10.45Q268.55 12.53 267.75 14.35Q266.96 16.17 265.57 17.55Q264.18 18.93 262.35 19.70Q260.53 20.47 258.48 20.47L258.48 20.47Q256.37 20.47 254.57 19.70Q252.76 18.93 251.38 17.56Q250.00 16.20 249.22 14.38Q248.44 12.55 248.44 10.45ZM251.68 10.45L251.68 10.45Q251.68 11.91 252.20 13.18Q252.73 14.45 253.67 15.40Q254.62 16.36 255.86 16.90Q257.10 17.44 258.56 17.44L258.56 17.44Q259.97 17.44 261.19 16.90Q262.42 16.36 263.34 15.40Q264.26 14.45 264.78 13.18Q265.31 11.91 265.31 10.45L265.31 10.45Q265.31 8.96 264.77 7.70Q264.23 6.43 263.31 5.45Q262.40 4.48 261.15 3.94Q259.91 3.40 258.48 3.40L258.48 3.40Q257.05 3.40 255.81 3.94Q254.57 4.48 253.63 5.45Q252.70 6.43 252.19 7.71Q251.68 8.99 251.68 10.45ZM282.74 20.25L282.74 0.59L285.89 0.59L285.89 17.23L295.56 17.23L295.56 20.25L282.74 20.25ZM312.58 0.59L312.58 13.18Q312.58 14.34 313.19 15.31Q313.80 16.28 314.80 16.85Q315.79 17.41 317.04 17.41L317.04 17.41Q318.33 17.41 319.36 16.85Q320.38 16.28 320.98 15.31Q321.57 14.34 321.57 13.18L321.57 13.18L321.57 0.59L324.68 0.59L324.68 13.26Q324.68 15.39 323.65 17.02Q322.63 18.66 320.90 19.56Q319.17 20.47 317.04 20.47L317.04 20.47L317.04 20.47Q314.93 20.47 313.20 19.56Q311.47 18.66 310.46 17.02Q309.45 15.39 309.45 13.26L309.45 13.26L309.45 0.59L312.58 0.59ZM338.35 3.62L338.35 0.59L351.50 0.59L351.50 3.62L346.42 3.62L346.42 20.25L343.29 20.25L343.29 3.62L338.35 3.62ZM365.49 20.25L365.49 0.59L368.65 0.59L368.65 20.25L365.49 20.25ZM382.84 10.45L382.84 10.45Q382.84 8.40 383.62 6.59Q384.40 4.78 385.78 3.38Q387.16 1.97 388.98 1.17Q390.80 0.38 392.88 0.38L392.88 0.38Q394.93 0.38 396.76 1.17Q398.58 1.97 399.97 3.38Q401.36 4.78 402.16 6.59Q402.95 8.40 402.95 10.45L402.95 10.45Q402.95 12.53 402.16 14.35Q401.36 16.17 399.97 17.55Q398.58 18.93 396.76 19.70Q394.93 20.47 392.88 20.47L392.88 20.47Q390.78 20.47 388.97 19.70Q387.16 18.93 385.78 17.56Q384.40 16.20 383.62 14.38Q382.84 12.55 382.84 10.45ZM386.08 10.45L386.08 10.45Q386.08 11.91 386.60 13.18Q387.13 14.45 388.08 15.40Q389.02 16.36 390.26 16.90Q391.50 17.44 392.96 17.44L392.96 17.44Q394.37 17.44 395.60 16.90Q396.82 16.36 397.74 15.40Q398.66 14.45 399.19 13.18Q399.71 11.91 399.71 10.45L399.71 10.45Q399.71 8.96 399.17 7.70Q398.63 6.43 397.72 5.45Q396.80 4.48 395.56 3.94Q394.31 3.40 392.88 3.40L392.88 3.40Q391.45 3.40 390.21 3.94Q388.97 4.48 388.04 5.45Q387.10 6.43 386.59 7.71Q386.08 8.99 386.08 10.45ZM434.50 20.95L434.42 20.95L419.32 6.32L420.24 6.70L420.32 20.25L417.14 20.25L417.14-0.08L417.30-0.08L432.15 14.55L431.42 14.34L431.37 0.59L434.50 0.59L434.50 20.95Z" transform="translate(0, 0)">
            </path>
        </g>
    </svg>