<svg width="50" height="50" viewBox="0 0 50 50" fill="none" xmlns="http://www.w3.org/2000/svg">
<path d="M2.40829 25.9137C2.28029 25.7793 2.12429 25.6726 1.95229 25.5974C1.78029 25.5223 1.59629 25.4867 1.40829 25.4867C1.22029 25.4828 1.03629 25.5223 0.864295 25.5935C0.692296 25.6686 0.536297 25.7754 0.408298 25.9098C0.276299 26.0403 0.172299 26.1945 0.1043 26.3645C0.0363003 26.5384 0.0003005 26.7203 0.0003005 26.9022C-0.00369948 27.088 0.0323003 27.2699 0.1043 27.4399C0.176299 27.6099 0.280299 27.7641 0.412298 27.8946C0.540335 28.029 0.695491 28.1355 0.867742 28.207C1.03999 28.2785 1.2255 28.3135 1.41229 28.3097C1.59868 28.3107 1.78335 28.2745 1.9552 28.2031C2.12705 28.1318 2.28253 28.0268 2.41229 27.8946C2.54829 27.768 2.65228 27.6138 2.72428 27.4438C2.79628 27.2738 2.83228 27.0919 2.83228 26.9061C2.83228 26.7203 2.79628 26.5384 2.72428 26.3684C2.64828 26.1945 2.54429 26.0403 2.40829 25.9137ZM19.1482 22.7033C19.1282 23.589 19.1722 24.4785 19.2762 25.3602H19.2282C19.1162 25.1428 18.8682 24.7395 18.4882 24.1504L9.36825 10H6.60026V28.0646H8.72825V15.0054C8.75225 14.1791 8.71625 13.3528 8.62825 12.5264H8.70825C8.86025 12.9218 9.05625 13.3014 9.28825 13.6572L18.6562 28.0646H21.2762V10H19.1482V22.7033ZM35.7041 26.0798H28.1841V19.8211H34.7641V17.9154H28.1841V11.9136H35.2441V10H26.0041V28.0646H35.6921L35.7041 26.0798ZM37.3321 10V11.9136H42.572V28.0646H44.7V11.9136H50V10H37.3321ZM16.4762 32.556C15.9447 32.7656 15.4646 33.0851 15.0682 33.493C14.6602 33.924 14.3402 34.4301 14.1322 34.9875C13.9242 35.545 13.8322 36.1341 13.8562 36.7232C13.8162 37.8144 14.2002 38.882 14.9362 39.6964C15.3042 40.0799 15.7522 40.3765 16.2482 40.5742C16.7442 40.7718 17.2762 40.8588 17.8082 40.8351C18.6082 40.8628 19.4042 40.6967 20.1282 40.3488L20.1362 39.4276C19.4722 39.8111 18.7162 40.0009 17.9482 39.9811C17.5362 39.9969 17.1242 39.9257 16.7442 39.7715C16.3642 39.6173 16.0202 39.3801 15.7402 39.0796C15.1547 38.4074 14.8538 37.5379 14.9002 36.6521C14.8522 35.715 15.1762 34.7978 15.8002 34.094C16.0962 33.7698 16.4602 33.5168 16.8642 33.3428C17.2697 33.1723 17.7076 33.09 18.1482 33.1016C18.8482 33.0898 19.5362 33.2598 20.1482 33.5958V32.6034C19.5135 32.3505 18.8321 32.2319 18.1482 32.2555C17.5762 32.2476 17.0042 32.3464 16.4762 32.556ZM26.4481 35.3869C26.1808 35.1089 25.8557 34.8915 25.4953 34.7496C25.1349 34.6076 24.7476 34.5445 24.3602 34.5645C23.9482 34.5447 23.5402 34.6119 23.1562 34.7582C22.7722 34.9045 22.4242 35.1259 22.1282 35.4066C21.8402 35.7229 21.6202 36.0906 21.4762 36.4939C21.3322 36.8972 21.2722 37.3202 21.3002 37.7472C21.2602 38.5578 21.5442 39.3524 22.0882 39.9574C22.3602 40.246 22.6882 40.4753 23.0562 40.6295C23.4242 40.7797 23.8202 40.8549 24.2162 40.839C24.6202 40.8509 25.0242 40.7758 25.4002 40.6216C25.7761 40.4674 26.1121 40.2341 26.3881 39.9376C26.9491 39.3125 27.2393 38.4947 27.1961 37.6603C27.2441 36.83 26.9761 36.0195 26.4481 35.3869ZM25.7161 39.4473C25.5402 39.6482 25.3199 39.8064 25.0724 39.9099C24.8248 40.0134 24.5565 40.0594 24.2882 40.0443C24.0122 40.0562 23.7402 40.0048 23.4882 39.902C23.2362 39.7953 23.0122 39.6371 22.8282 39.4315C22.4448 38.9625 22.2523 38.3689 22.2882 37.767C22.2522 37.1463 22.4442 36.5334 22.8282 36.0432C23.0082 35.8376 23.2322 35.6755 23.4842 35.5648C23.7362 35.458 24.0122 35.4066 24.2842 35.4185C24.5562 35.4027 24.8242 35.4541 25.0722 35.5608C25.3202 35.6676 25.5401 35.8297 25.7161 36.0353C26.0797 36.5323 26.2565 37.1391 26.2161 37.7512C26.2561 38.3522 26.0801 38.9571 25.7161 39.4473ZM30.3521 34.9994C30.0521 35.2643 29.8321 35.6083 29.7241 35.9918V34.7503H28.7241V40.6967H29.7241V37.6642C29.6921 37.1146 29.8361 36.5651 30.1321 36.0985C30.2401 35.9285 30.3841 35.7862 30.5601 35.6873C30.7361 35.5885 30.9321 35.5292 31.1321 35.5252C31.3881 35.5055 31.6441 35.5727 31.8601 35.715V34.7345C31.6761 34.6752 31.4841 34.6475 31.2921 34.6554C30.9481 34.6515 30.6161 34.774 30.3521 34.9994ZM37.7121 37.4547C37.7601 36.6995 37.5321 35.9562 37.0721 35.3552C36.8441 35.1022 36.5641 34.9006 36.2481 34.7701C35.9321 34.6396 35.5921 34.5803 35.2521 34.6001C34.8761 34.5882 34.5001 34.6633 34.1521 34.8136C33.8081 34.9638 33.5001 35.1892 33.2521 35.4738C32.709 36.1002 32.4273 36.9073 32.4641 37.7314C32.4121 38.5538 32.6721 39.3683 33.1921 40.0088C33.4441 40.2816 33.7561 40.4951 34.1001 40.6374C34.4441 40.7797 34.8201 40.839 35.1921 40.8232C35.9321 40.8588 36.6641 40.6611 37.2801 40.2579V39.3643C36.7538 39.787 36.0982 40.0211 35.4201 40.0285C35.1601 40.0443 34.8961 40.0048 34.6521 39.9099C34.4081 39.815 34.1841 39.6767 34.0001 39.4908C33.6427 39.0633 33.4614 38.5184 33.4921 37.9647H37.7201L37.7121 37.4547ZM33.4841 37.1779C33.5361 36.7074 33.7441 36.2646 34.0721 35.9206C34.2191 35.7645 34.3975 35.6406 34.596 35.5568C34.7944 35.473 35.0084 35.4313 35.2241 35.4343C35.4321 35.4224 35.6361 35.458 35.8281 35.5371C36.0201 35.6162 36.1881 35.7348 36.3241 35.889C36.6041 36.2567 36.7441 36.7074 36.7241 37.166L33.4841 37.1779Z" fill="#621EE5"/>
</svg>
