<svg width="50" height="50" viewBox="0 0 50 50" fill="none" xmlns="http://www.w3.org/2000/svg">
<path d="M24.8198 0C12.1267 9.05624e-07 12.9193 5.5045 12.9193 5.5045L12.9334 11.2071H25.0462V12.9193H8.12232C8.12232 12.9193 0 11.9981 0 24.8056C-9.05624e-07 37.6131 7.08934 37.1589 7.08934 37.1589H11.3203V31.2157C11.3203 31.2157 11.0922 24.1264 18.2964 24.1264C25.5006 24.1264 30.3101 24.1264 30.3101 24.1264C30.3101 24.1264 37.0598 24.2355 37.0598 17.6031C37.0598 10.9706 37.0598 6.63653 37.0598 6.63653C37.0598 6.63653 38.0846 0 24.8198 0ZM18.1408 3.83475C19.3459 3.83475 20.3199 4.80878 20.3199 6.01391C20.3199 7.21904 19.3459 8.19307 18.1408 8.19307C16.9357 8.19307 15.9616 7.21904 15.9616 6.01391C15.9616 4.80878 16.9357 3.83475 18.1408 3.83475Z" fill="url(#paint0_linear)"/>
<path d="M25.1802 49.7396C37.8734 49.7396 37.0807 44.2351 37.0807 44.2351L37.0666 38.5325H24.9538V36.8203H41.8777C41.8777 36.8203 50 37.7415 50 24.934C50 12.1265 42.9107 12.5807 42.9107 12.5807H38.6797V18.5239C38.6797 18.5239 38.9078 25.6132 31.7036 25.6132C24.4994 25.6132 19.6899 25.6132 19.6899 25.6132C19.6899 25.6132 12.9402 25.5041 12.9402 32.1366C12.9402 38.769 12.9402 43.1031 12.9402 43.1031C12.9402 43.1031 11.9154 49.7396 25.1802 49.7396ZM31.8592 45.9049C30.6541 45.9049 29.6801 44.9308 29.6801 43.7257C29.6801 42.5206 30.6541 41.5466 31.8592 41.5466C33.0644 41.5466 34.0384 42.5206 34.0384 43.7257C34.0384 44.9308 33.0644 45.9049 31.8592 45.9049Z" fill="url(#paint1_linear)"/>
<defs>
<linearGradient id="paint0_linear" x1="4.8051" y1="4.34769" x2="29.5286" y2="29.1539" gradientUnits="userSpaceOnUse">
<stop stop-color="#387EB8"/>
<stop offset="1" stop-color="#366994"/>
</linearGradient>
<linearGradient id="paint1_linear" x1="20.014" y1="20.1283" x2="46.5671" y2="45.5676" gradientUnits="userSpaceOnUse">
<stop stop-color="#FFE052"/>
<stop offset="1" stop-color="#FFC331"/>
</linearGradient>
</defs>
</svg>
