<svg width="50" height="45" viewBox="0 0 50 45" fill="none" xmlns="http://www.w3.org/2000/svg">
<path d="M50 22.439C50 19.1014 45.852 15.9384 39.4925 13.9769C40.96 7.44544 40.3078 2.24903 37.4338 0.585365C36.7713 0.195121 35.9967 0.0102694 35.1508 0.0102694V2.30038C35.6196 2.30038 35.9967 2.39281 36.3127 2.56739C37.6987 3.36842 38.3 6.41848 37.8312 10.3415C37.7191 11.3068 37.5357 12.3235 37.3115 13.3607C35.3139 12.8678 33.1329 12.4878 30.8398 12.2413C29.4639 10.3415 28.0371 8.61617 26.6001 7.10654C29.9225 3.99486 33.0412 2.29011 35.161 2.29011V0C32.3583 0 28.6894 2.01284 24.9796 5.50449C21.2699 2.03337 17.6009 0.0410784 14.7982 0.0410784V2.33119C16.9079 2.33119 20.0367 4.02567 23.3592 7.11681C21.9323 8.62644 20.5055 10.3415 19.15 12.2413C16.8467 12.4878 14.6657 12.8678 12.6682 13.371C12.4338 12.344 12.2605 11.3479 12.1382 10.3928C11.6592 6.46983 12.2503 3.41977 13.6262 2.60847C13.9319 2.42362 14.3294 2.34146 14.7982 2.34146V0.0513478C13.9421 0.0513478 13.1675 0.2362 12.4949 0.626443C9.63106 2.29011 8.98899 7.47624 10.4668 13.9871C4.1276 15.9589 0 19.1117 0 22.439C0 25.7766 4.14798 28.9396 10.5075 30.9011C9.03995 37.4326 9.69221 42.629 12.5662 44.2926C13.2287 44.6829 14.0033 44.8677 14.8594 44.8677C17.662 44.8677 21.331 42.8549 25.0408 39.3632C28.7505 42.8344 32.4195 44.8267 35.2222 44.8267C36.0783 44.8267 36.8528 44.6418 37.5255 44.2516C40.3893 42.5879 41.0314 37.4018 39.5536 30.8909C45.8724 28.9294 50 25.7663 50 22.439ZM36.7305 15.5892C36.3534 16.914 35.8846 18.2798 35.3547 19.6457C34.9368 18.8241 34.4986 18.0026 34.0196 17.181C33.5508 16.3594 33.0514 15.5584 32.552 14.7779C33.9992 14.9936 35.3954 15.2606 36.7305 15.5892ZM32.0628 26.5263C31.2678 27.9127 30.4525 29.2272 29.6066 30.4493C28.0881 30.5828 26.5491 30.6547 25 30.6547C23.4611 30.6547 21.9221 30.5828 20.4138 30.4595C19.5679 29.2375 18.7424 27.9332 17.9474 26.5571C17.1728 25.2118 16.4696 23.8459 15.8276 22.4698C16.4594 21.0937 17.1729 19.7176 17.9372 18.3723C18.7322 16.9859 19.5475 15.6714 20.3934 14.4493C21.9119 14.3158 23.4509 14.2439 25 14.2439C26.5389 14.2439 28.0779 14.3158 29.5862 14.439C30.4321 15.6611 31.2576 16.9653 32.0526 18.3414C32.8272 19.6868 33.5304 21.0526 34.1724 22.4287C33.5304 23.8049 32.8271 25.181 32.0628 26.5263ZM35.3547 25.1912C35.905 26.5674 36.3738 27.9435 36.7611 29.2785C35.426 29.6072 34.0196 29.8844 32.5622 30.1001C33.0616 29.3093 33.5609 28.498 34.0298 27.6662C34.4986 26.8446 34.9368 26.0128 35.3547 25.1912ZM25.0204 36.1489C24.0726 35.163 23.1247 34.0642 22.1871 32.8626C23.1044 32.9037 24.042 32.9345 24.9898 32.9345C25.9478 32.9345 26.8956 32.914 27.8231 32.8626C26.9058 34.0642 25.958 35.163 25.0204 36.1489ZM17.4378 30.1001C15.9906 29.8844 14.5944 29.6174 13.2593 29.2888C13.6364 27.964 14.1052 26.5982 14.6351 25.2323C15.053 26.0539 15.4912 26.8755 15.9702 27.697C16.4492 28.5186 16.9384 29.3196 17.4378 30.1001ZM24.9694 8.72913C25.9172 9.71501 26.8651 10.8139 27.8027 12.0154C26.8854 11.9743 25.9478 11.9435 25 11.9435C24.042 11.9435 23.0942 11.964 22.1667 12.0154C23.084 10.8139 24.0318 9.71501 24.9694 8.72913ZM17.4276 14.7779C16.9283 15.5687 16.4289 16.38 15.96 17.2118C15.4912 18.0334 15.053 18.8549 14.6351 19.6765C14.0848 18.3004 13.616 16.9242 13.2287 15.5892C14.5638 15.2708 15.9702 14.9936 17.4276 14.7779ZM8.20424 27.6354C4.59641 26.0847 2.26254 24.0513 2.26254 22.439C2.26254 20.8267 4.59641 18.783 8.20424 17.2426C9.08072 16.8626 10.0387 16.5237 11.0273 16.2054C11.6082 18.2182 12.3726 20.3132 13.3204 22.4595C12.3828 24.5956 11.6286 26.6803 11.0579 28.6829C10.0489 28.3645 9.09091 28.0154 8.20424 27.6354ZM13.6873 42.3106C12.3013 41.5096 11.7 38.4595 12.1688 34.5365C12.2809 33.5712 12.4643 32.5545 12.6885 31.5173C14.6861 32.0102 16.8671 32.3902 19.1602 32.6367C20.5361 34.5365 21.9629 36.2618 23.3999 37.7715C20.0775 40.8831 16.9588 42.5879 14.839 42.5879C14.3804 42.5776 13.9931 42.4852 13.6873 42.3106ZM37.8618 34.4852C38.3408 38.4082 37.7497 41.4582 36.3738 42.2695C36.0681 42.4544 35.6706 42.5365 35.2018 42.5365C33.0921 42.5365 29.9633 40.8421 26.6409 37.7509C28.0677 36.2413 29.4945 34.5263 30.85 32.6264C33.1533 32.3799 35.3343 32 37.3318 31.4968C37.5662 32.534 37.7497 33.5301 37.8618 34.4852ZM41.7856 27.6354C40.9091 28.0154 39.9511 28.3543 38.9625 28.6726C38.3816 26.6598 37.6172 24.5648 36.6694 22.4185C37.607 20.2824 38.3612 18.1977 38.9319 16.1951C39.9409 16.5135 40.8989 16.8626 41.7958 17.2426C45.4036 18.7933 47.7375 20.8267 47.7375 22.439C47.7273 24.0513 45.3934 26.095 41.7856 27.6354Z" fill="#61DAFB"/>
<path d="M24.9898 27.1321C27.5621 27.1321 29.6474 25.0309 29.6474 22.4389C29.6474 19.8469 27.5621 17.7457 24.9898 17.7457C22.4175 17.7457 20.3323 19.8469 20.3323 22.4389C20.3323 25.0309 22.4175 27.1321 24.9898 27.1321Z" fill="#61DAFB"/>
</svg>
