<svg width="50" height="50" viewBox="0 0 50 50" fill="none" xmlns="http://www.w3.org/2000/svg">
<path d="M25 50C38.8071 50 50 38.8071 50 25C50 11.1929 38.8071 0 25 0C11.1929 0 0 11.1929 0 25C0 38.8071 11.1929 50 25 50Z" fill="#1A171B"/>
<path d="M35.9135 9.65334C33.4195 9.74065 31.2426 11.1201 29.6223 13.0287C27.828 15.121 26.6344 17.6028 25.7743 20.1362C24.2358 18.8707 23.0489 17.2323 20.5807 16.5179C18.673 15.9683 16.6692 16.1953 14.8266 17.5732C13.9537 18.2276 13.3523 19.2169 13.0664 20.1469C12.3258 22.5634 13.8448 24.7142 14.5346 25.4863L16.0429 27.1087C16.3538 27.4268 17.1027 28.2566 16.7366 29.4462C16.341 30.7399 14.7873 31.5773 13.1935 31.0838C12.4817 30.8659 11.459 30.3337 11.6882 29.5844C11.7827 29.2777 12.0013 29.0484 12.1186 28.7834C12.226 28.5557 12.2774 28.3849 12.31 28.2846C12.6012 27.3303 12.2033 26.0891 11.1852 25.774C10.2351 25.4817 9.26308 25.7133 8.88638 26.9409C8.459 28.3355 9.1239 30.8666 12.6859 31.969C16.8591 33.2558 20.3893 30.9752 20.8901 28.0007C21.2055 26.1376 20.3674 24.7536 18.8319 22.9733L17.5807 21.5848C16.8228 20.8248 16.5626 19.5297 17.347 18.5344C18.0089 17.6947 18.9514 17.3364 20.4952 17.7577C22.7486 18.3719 23.7532 19.9411 25.4294 21.2067C24.7373 23.485 24.2849 25.7717 23.8757 27.8223L23.6261 29.3513C22.4279 35.6587 21.5134 39.1221 19.1367 41.1104C18.6579 41.452 17.9733 41.9637 16.9416 41.9994C16.4007 42.0161 16.226 41.6426 16.2184 41.4801C16.2056 41.099 16.5255 40.9244 16.7381 40.7528C17.0558 40.579 17.5361 40.2905 17.5036 39.3665C17.4688 38.2748 16.5679 37.3281 15.2653 37.3714C14.2895 37.4048 12.8024 38.3265 12.8584 40.0134C12.9166 41.7557 14.5346 43.0615 16.9741 42.9788C18.2782 42.934 21.1904 42.401 24.0603 38.9771C27.4007 35.0521 28.3348 30.5523 29.0376 27.259L29.822 22.9111C30.2577 22.9635 30.7236 22.9984 31.2304 23.0105C35.3908 23.0986 37.4717 20.9357 37.5027 19.3626C37.5232 18.4106 36.8802 17.4738 35.98 17.495C35.3356 17.5132 34.5262 17.9437 34.3318 18.838C34.1419 19.7157 35.6555 20.5075 34.4725 21.2766C33.6321 21.8224 32.1253 22.2073 30.0035 21.8945L30.3893 19.7544C31.1767 15.6957 32.148 10.7033 35.8325 10.5818C36.1011 10.5682 37.0837 10.594 37.1064 11.2461C37.1132 11.464 37.0595 11.5194 36.8053 12.0182C36.5466 12.4069 36.449 12.7379 36.4611 13.1183C36.4967 14.1546 37.2819 14.8356 38.4173 14.7946C39.9377 14.7452 40.3749 13.2595 40.3499 12.4965C40.2887 10.7041 38.4059 9.57135 35.9135 9.65334Z" fill="white"/>
</svg>
